<?xml version="1.0" encoding="UTF-8"?>
<svg id="Capa_1" data-name="Capa 1" xmlns="http://www.w3.org/2000/svg" viewBox="0 0 600 600">
  <defs>
    <style>
      .cls-1 {
        fill: #1d215f;
      }

      .cls-2 {
        fill: #25557d;
      }

      .cls-3 {
        fill: #fbca3b;
      }

      .cls-4 {
        fill: #00b1d1;
      }
    </style>
  </defs>
  <path class="cls-1" d="M435.94,202.37v-37.03c0-5.35-2.13-10.48-5.91-14.27l-19.54-19.54c-3.78-3.78-8.92-5.91-14.27-5.91h-41.83c-2.08,0-4.15.32-6.13.95l-43.54,13.89c-3.99,1.27-8.28,1.27-12.27,0l-43.54-13.89c-1.98-.63-4.05-.95-6.13-.95h-41.83c-5.35,0-10.48,2.13-14.27,5.91l-19.54,19.54c-3.78,3.78-5.91,8.92-5.91,14.27v37.03h274.7Z"/>
  <path class="cls-2" d="M432.74,282.47l1.15-2.55c1.35-3,2.05-6.26,2.05-9.55v-57.8H161.24v57.8c0,3.29.7,6.55,2.05,9.55l1.15,2.55h268.3Z"/>
  <path class="cls-4" d="M190.14,361.27h92.32l.06-.35,9.42-8.28c3.8-3.34,9.5-3.34,13.3,0l9.42,8.28.06.35h92.32l4.2-30.08c.13-.95.4-1.87.79-2.74l16.12-35.79H169.03l16.12,35.79c.39.87.66,1.8.79,2.74l4.2,30.08Z"/>
  <polygon class="cls-2" points="192.25 376.36 198.81 423.32 203.18 454.64 203.45 455.16 267.81 455.16 272.78 423.32 280.11 376.36 192.25 376.36"/>
  <polygon class="cls-2" points="317.07 376.36 324.4 423.32 329.37 455.16 393.72 455.16 394 454.64 398.37 423.32 404.93 376.36 317.07 376.36"/>
  <g>
    <polygon class="cls-1" points="368.03 504.5 384.89 472.13 332.02 472.13 337.18 505.19 368.03 504.5"/>
    <path class="cls-1" d="M337.07,504.5l.88,5.62c.46,2.97,3.02,5.15,6.02,5.15h14.76c2.27,0,4.35-1.26,5.4-3.28l3.9-7.49h-30.96Z"/>
  </g>
  <g>
    <polygon class="cls-1" points="259.96 505.47 265.16 472.13 212.29 472.13 229.15 504.5 259.96 505.47"/>
    <path class="cls-1" d="M229.15,504.5l3.9,7.49c1.05,2.01,3.13,3.28,5.4,3.28h14.76c3,0,5.56-2.19,6.02-5.15l.88-5.62h-30.96Z"/>
  </g>
  <path class="cls-3" d="M148.04,237.45l-.08-23.45c0-.56-.29-1.07-.76-1.37l-41.03-25.77c-.12-.08-.23-.17-.33-.27l-43.29-46.86c-.38-.41-.95-.6-1.51-.49l-8.65,1.71c-1.15.23-1.69,1.57-1.01,2.53l45.6,64.38c.12.17.28.32.45.43l48.1,30.54c1.08.69,2.5-.09,2.49-1.37Z"/>
  <path class="cls-3" d="M449.13,240.61l.09-25.9c0-.2.11-.39.28-.5l41.63-26.14s.08-.06.12-.1l43.77-47.38c.14-.15.35-.22.55-.18l10.77,2.13c.42.08.62.57.37.92l-46.64,65.84c-.04.06-.1.12-.17.16l-49.86,31.66c-.39.25-.91-.03-.91-.5Z"/>
  <path class="cls-3" d="M150.63,179.69v-24.36c0-3.42,1.36-6.71,3.78-9.13l14.41-14.41c.3-.3.24-.8-.12-1.02l-38.36-23.73c-.23-.14-.52-.13-.74.03l-12.1,9.03c-.25.19-.33.52-.2.81l29.87,63.07c.11.23.34.38.59.38h2.2c.36,0,.66-.29.66-.66Z"/>
  <path class="cls-3" d="M192.52,115.08h30.52c.39,0,.67-.37.57-.75l-26.24-97.23c-.56-2.06-3.04-2.87-4.7-1.53l-10.17,8.17c-1.69,1.36-2.54,3.5-2.25,5.65l11.68,85.18c.04.29.29.51.59.51Z"/>
  <path class="cls-3" d="M446.05,179.75v-24.26c0-3.53-1.4-6.91-3.89-9.4l-14.36-14.36c-.27-.27-.22-.72.11-.92l38.46-23.8c.21-.13.47-.12.67.03l12.18,9.08c.23.17.3.47.18.73l-29.91,63.15c-.1.21-.31.34-.53.34h-2.31c-.33,0-.59-.26-.59-.59Z"/>
  <path class="cls-3" d="M404.15,115.08h-30.52c-.39,0-.67-.37-.57-.75l26.24-97.23c.56-2.06,3.04-2.87,4.7-1.53l10.17,8.17c1.69,1.36,2.54,3.5,2.25,5.65l-11.68,85.18c-.04.29-.29.51-.59.51Z"/>
  <path class="cls-3" d="M282.01,126.31l13.47,5c2.05.76,4.3.8,6.38.12l15.73-5.19c1.08-.36,1.75-1.43,1.6-2.55l-11.75-89.77c-.15-1.18-1.16-2.06-2.35-2.06h-6.97c-1.15,0-2.14.83-2.33,1.97l-15.29,89.87c-.19,1.12.44,2.22,1.51,2.61Z"/>
  <path class="cls-3" d="M176.45,336.9l3.61,21.5c.22,1.33-1.02,2.45-2.32,2.08l-61.83-17.55c-.15-.04-.29-.1-.43-.17l-93.17-47.45c-1.92-.98-1.64-3.81.44-4.38l13.38-3.69c.52-.14,1.07-.1,1.56.11l79.86,34.17c.12.05.25.09.38.12l57.13,13.78c.72.17,1.26.76,1.38,1.48Z"/>
  <path class="cls-3" d="M153.58,370.56l2.69-4.91c.82-1.49-.16-3.33-1.85-3.49l-59.1-5.66c-.05,0-.11,0-.16,0l-34.86-.96c-.41-.01-.81.08-1.18.28l-13.91,7.41c-1.95,1.04-1.53,3.95.63,4.4l42.2,8.68c.21.04.43.06.65.04l62.98-4.55c.8-.06,1.52-.52,1.9-1.22Z"/>
  <path class="cls-3" d="M420.58,336.09l-4.08,24.26c-.07.43.33.79.75.67l63.89-18.14s.07-.02.11-.04l97.4-49.61c.48-.25.41-.95-.11-1.1l-18.38-5.06c-.13-.04-.27-.03-.39.03l-80.57,34.47s-.06.02-.09.03l-58.08,14.01c-.23.06-.41.24-.44.48Z"/>
  <path class="cls-3" d="M453.85,370.01l-4.31-8.19c-.2-.38.05-.83.48-.87l61.93-4.83s.03,0,.04,0l35.4-.35c.1,0,.2.02.29.07l18.48,10.26c.48.27.37,1-.18,1.1l-47.41,8.88c-.05.01-.11.01-.16,0l-64.09-5.77c-.2-.02-.38-.14-.47-.31Z"/>
</svg>